<?xml version="1.0" encoding="UTF-8"?>
<svg width="34px" height="30px" viewBox="0 0 34 30" version="1.1" xmlns="http://www.w3.org/2000/svg" xmlns:xlink="http://www.w3.org/1999/xlink">
    <!-- Generator: Sketch 63.1 (92452) - https://sketch.com -->
    <title>장바구니</title>
    <desc>Created with Sketch.</desc>
    <g id="장바구니" stroke="none" stroke-width="1" fill="none" fill-rule="evenodd">
        <path d="M12.8354,16 L11.4744,10.554 L23.7334,11.429 L22.2094,16 L12.8354,16 Z M21.7504,20.25 C22.0254,20.25 22.2504,20.475 22.2504,20.75 C22.2504,21.026 22.0254,21.25 21.7504,21.25 C21.4744,21.25 21.2504,21.026 21.2504,20.75 C21.2504,20.475 21.4744,20.25 21.7504,20.25 L21.7504,20.25 Z M12.7504,21.25 C12.4744,21.25 12.2504,21.026 12.2504,20.75 C12.2504,20.475 12.4744,20.25 12.7504,20.25 C13.0254,20.25 13.2504,20.475 13.2504,20.75 C13.2504,21.026 13.0254,21.25 12.7504,21.25 L12.7504,21.25 Z M23.4624,16.987 L25.4624,10.987 C25.5354,10.768 25.5024,10.526 25.3744,10.333 C25.2454,10.141 25.0344,10.019 24.8044,10.002 L11.0914,9.022 L10.3354,6 L6.7504,6 C6.3354,6 6.0004,6.336 6.0004,6.75 C6.0004,7.164 6.3354,7.5 6.7504,7.5 L9.1644,7.5 L12.0134,18.895 C11.2734,19.188 10.7504,19.906 10.7504,20.75 C10.7504,21.854 11.6454,22.75 12.7504,22.75 C13.8554,22.75 14.7504,21.854 14.7504,20.75 C14.7504,20.665 14.7354,20.583 14.7254,20.5 L19.7754,20.5 C19.7654,20.583 19.7504,20.665 19.7504,20.75 C19.7504,21.854 20.6464,22.75 21.7504,22.75 C22.8554,22.75 23.7504,21.854 23.7504,20.75 C23.7504,19.646 22.8554,18.75 21.7504,18.75 C21.3844,18.75 21.0454,18.855 20.7504,19.027 L20.7504,19 L13.7504,19 L13.7504,19.027 C13.6634,18.977 13.5754,18.93 13.4814,18.893 C13.5024,18.788 13.5054,18.678 13.4774,18.568 L13.2104,17.5 L22.7504,17.5 C23.0734,17.5 23.3594,17.293 23.4624,16.987 L23.4624,16.987 Z" id="cart" fill="#222222"></path>
    </g>
</svg>